<?xml version="1.0" standalone="no"?>
<!DOCTYPE svg PUBLIC "-//W3C//DTD SVG 20010904//EN"
 "http://www.w3.org/TR/2001/REC-SVG-20010904/DTD/svg10.dtd">
<svg version="1.0" xmlns="http://www.w3.org/2000/svg"
 width="700.000000pt" height="700.000000pt" viewBox="0 0 700.000000 700.000000"
 preserveAspectRatio="xMidYMid meet">
<metadata>
Created by potrace 1.11, written by Peter Selinger 2001-2013
</metadata>
<g transform="translate(0.000000,700.000000) scale(0.100000,-0.100000)"
fill="#000000" stroke="none">
<path d="M1173 3545 c0 -2110 4 -3458 9 -3461 7 -5 887 -8 1158 -5 l46 1 -1
245 c0 135 2 245 5 245 3 0 20 -23 39 -51 42 -62 173 -186 266 -251 152 -108
396 -207 600 -243 145 -26 535 -27 660 -1 11 2 43 7 70 10 144 20 405 94 530
151 31 14 58 25 61 25 6 0 145 76 189 103 307 188 558 467 726 807 45 93 103
231 126 300 43 134 82 278 97 365 26 139 37 214 42 268 3 34 7 73 10 87 22
121 22 610 0 805 -2 17 -7 59 -10 95 -4 36 -14 101 -22 145 -8 44 -17 96 -20
115 -15 98 -80 323 -136 465 -232 591 -652 1003 -1214 1191 -58 20 -114 37
-123 39 -9 1 -36 8 -61 15 -25 7 -56 14 -70 16 -14 3 -36 7 -50 9 -58 12 -77
15 -149 25 -102 13 -245 22 -362 22 -408 1 -831 -163 -1111 -430 l-93 -90 0
1219 0 1219 -606 0 -606 0 0 -3455z m2422 486 c459 -77 799 -455 913 -1017 57
-276 61 -636 11 -890 -5 -28 -12 -64 -15 -80 -8 -44 -32 -130 -61 -214 -28
-80 -136 -298 -162 -327 -9 -10 -27 -34 -41 -53 -34 -50 -156 -169 -220 -216
-307 -223 -745 -258 -1075 -86 -135 71 -274 190 -365 312 -93 125 -185 326
-233 510 -15 54 -22 88 -41 195 -6 30 -12 91 -21 195 -6 74 -6 313 0 375 12
118 16 154 26 215 113 682 545 1105 1114 1094 55 -1 132 -7 170 -13z"/>
</g>
</svg>
